<?xml version="1.0" standalone="no"?>
<!DOCTYPE svg PUBLIC "-//W3C//DTD SVG 20010904//EN"
 "http://www.w3.org/TR/2001/REC-SVG-20010904/DTD/svg10.dtd">
<svg version="1.0" xmlns="http://www.w3.org/2000/svg"
 width="192.000000pt" height="192.000000pt" viewBox="0 0 192.000000 192.000000"
 preserveAspectRatio="xMidYMid meet">
<metadata>
Created by potrace 1.14, written by Peter Selinger 2001-2017
</metadata>
<g transform="translate(0.000000,192.000000) scale(0.100000,-0.100000)"
fill="#000000" stroke="none">
<path d="M362 1113 l3 -378 138 -3 137 -3 0 61 0 60 -85 0 -85 0 0 320 0 320
-55 0 -55 0 2 -377z"/>
<path d="M654 1474 c3 -8 6 -180 6 -380 l0 -364 140 0 141 0 -3 58 -3 57 -87
3 -88 3 0 84 c0 46 -3 90 -6 99 -5 14 4 16 60 16 l66 0 0 55 0 54 -57 3 -58 3
-5 103 -5 102 93 0 93 0 -3 58 -3 57 -144 3 c-128 2 -143 1 -137 -14z"/>
<path d="M969 1486 c-2 -3 -2 -172 1 -378 l5 -373 140 0 140 0 0 55 0 55 -87
3 -88 3 0 84 c0 46 -3 90 -6 99 -5 14 4 16 60 16 l66 0 0 55 0 54 -57 3 -58 3
-5 103 -5 102 148 0 147 0 0 -320 0 -320 55 0 55 0 0 308 c0 226 -3 311 -12
320 -9 9 3 12 55 12 l67 0 0 60 0 60 -309 0 c-169 -1 -310 -2 -312 -4z"/>
<path d="M350 475 l0 -45 630 0 630 0 0 45 0 45 -630 0 -630 0 0 -45z"/>
</g>
</svg>
